<svg width="578" height="552" viewBox="0 0 578 552" fill="none" xmlns="http://www.w3.org/2000/svg">
<g clip-path="url(#clip0_143_35)">
<path d="M282.441 278.301C279.065 279.121 274.862 277.065 270.069 272.236C265.311 267.442 260.12 260.058 254.815 250.62C244.21 231.751 233.205 204.772 224.326 174.157C215.453 143.566 212.781 116.17 213.192 95.5816C213.398 85.2865 214.374 76.7011 215.729 70.2738C216.406 67.0598 217.176 64.3936 217.987 62.3269C218.73 60.4336 219.494 59.0792 220.227 58.262C222.988 59.3683 226.704 62.4089 231.026 67.3432C235.492 72.442 240.552 79.4991 245.808 88.3488C256.318 106.047 267.595 130.882 276.471 161.485C285.35 192.1 290.414 220.523 291.429 241.722C291.937 252.326 291.43 261.094 289.897 267.418C288.352 273.787 285.817 277.481 282.441 278.301Z" stroke="#A5B3E0"/>
<path d="M284.857 280.9C281.338 280.88 277.737 277.896 274.255 272.115C270.797 266.374 267.562 258.042 264.728 247.71C259.064 227.053 255.036 198.511 253.998 166.984C252.961 135.483 257.195 108.533 262.744 88.8583C265.519 79.02 268.622 71.0082 271.554 65.1595C273.02 62.2347 274.44 59.8584 275.751 58.0677C276.955 56.4234 278.044 55.3035 278.968 54.6944C281.396 56.4151 284.275 60.2251 287.275 66.002C290.372 71.9663 293.56 79.9533 296.492 89.709C302.357 109.219 307.186 135.767 308.224 167.281C309.262 198.807 307.112 227.316 302.806 247.918C300.652 258.223 297.965 266.523 294.883 272.228C291.781 277.973 288.375 280.919 284.857 280.9Z" stroke="#A5B3E0"/>
<path d="M286.851 281.886C283.37 281.216 280.384 277.638 278.058 271.362C275.747 265.126 274.156 256.407 273.35 245.811C271.738 224.627 273.269 196.059 278.333 165.133C283.394 134.233 292.788 108.744 302.078 90.589C306.724 81.511 311.34 74.274 315.371 69.1144C317.386 66.5342 319.25 64.4802 320.892 62.9767C322.402 61.5943 323.698 60.7031 324.731 60.2806C326.801 62.4058 328.914 66.653 330.766 72.8417C332.677 79.2279 334.287 87.6028 335.303 97.6549C337.334 117.757 336.982 144.53 331.919 175.443C326.855 206.368 319.221 233.763 310.981 253.051C306.86 262.699 302.598 270.292 298.448 275.285C294.271 280.309 290.332 282.555 286.851 281.886Z" stroke="#A5B3E0"/>
<path d="M280.918 272.748C277.754 271.103 275.958 266.856 275.617 260.26C275.278 253.705 276.39 245.015 278.83 234.782C283.708 214.323 293.865 187.809 308.152 160.096C322.428 132.406 339.247 111.081 353.737 96.6484C360.983 89.4314 367.642 83.9431 373.103 80.245C375.833 78.3957 378.258 76.9988 380.301 76.0572C382.182 75.1904 383.706 74.7256 384.833 74.6277C386.189 77.2344 386.941 81.8573 386.85 88.2376C386.756 94.8189 385.768 103.19 383.695 112.971C379.551 132.531 371.078 157.693 356.796 185.394C342.509 213.107 326.812 236.741 312.992 252.549C306.08 260.456 299.656 266.383 294.13 269.889C288.57 273.416 284.081 274.393 280.918 272.748Z" stroke="#A5B3E0"/>
<path d="M280.977 276.201C278.293 273.866 277.595 269.359 278.911 262.941C280.218 256.564 283.479 248.483 288.426 239.238C298.317 220.754 314.889 197.716 335.804 174.516C356.702 151.334 378.498 134.873 396.293 124.475C405.19 119.276 413.08 115.597 419.351 113.351C422.487 112.227 425.209 111.465 427.445 111.049C429.502 110.667 431.11 110.585 432.237 110.76C432.913 113.588 432.493 118.207 430.809 124.313C429.071 130.611 426.011 138.415 421.537 147.314C412.59 165.11 398.004 187.251 377.097 210.443C356.182 233.644 334.907 252.59 317.426 264.469C308.682 270.411 300.911 274.568 294.625 276.614C288.3 278.672 283.661 278.537 280.977 276.201Z" stroke="#A5B3E0"/>
<path d="M281.818 278.223C279.617 275.453 279.796 270.932 282.338 264.917C284.863 258.941 289.651 251.665 296.33 243.566C309.685 227.374 330.53 207.976 355.701 189.223C380.852 170.484 405.592 158.464 425.203 151.615C435.009 148.19 443.525 146.061 450.162 145.03C453.481 144.514 456.321 144.275 458.613 144.282C460.72 144.289 462.324 144.506 463.406 144.884C463.526 147.765 462.218 152.19 459.373 157.829C456.438 163.649 451.903 170.692 445.758 178.54C433.469 194.236 414.763 213.127 389.601 231.873C364.43 250.627 339.725 265.167 320.137 273.518C310.34 277.695 301.85 280.312 295.236 281.145C288.58 281.983 284.02 280.993 281.818 278.223Z" stroke="#A5B3E0"/>
<path d="M277.486 268.344C276.271 265.08 277.899 260.903 282.291 256.05C286.651 251.231 293.606 245.896 302.643 240.375C320.713 229.336 347.014 217.613 377.263 207.831C407.489 198.056 435.147 194.449 456.204 194.1C466.733 193.925 475.604 194.565 482.314 195.652C485.67 196.196 488.477 196.85 490.677 197.567C492.692 198.223 494.159 198.919 495.075 199.604C494.255 202.339 491.568 206.076 487.016 210.474C482.313 215.018 475.677 220.213 467.234 225.665C450.349 236.568 426.266 248.479 396.029 258.257C365.779 268.039 337.34 274.017 315.82 275.781C305.055 276.664 296.051 276.489 289.426 275.223C282.753 273.948 278.7 271.608 277.486 268.344Z" stroke="#A5B3E0"/>
<path d="M275.095 270.798C274.909 269.093 275.466 267.339 276.775 265.545C278.086 263.749 280.134 261.939 282.872 260.145C288.346 256.559 296.489 253.097 306.718 249.955C327.167 243.673 355.846 238.701 387.905 236.538C419.939 234.377 447.918 237.526 468.62 242.225C478.972 244.575 487.496 247.311 493.794 249.959C496.944 251.284 499.528 252.584 501.503 253.798C503.307 254.907 504.568 255.925 505.294 256.8C503.805 259.228 500.241 262.173 494.69 265.306C488.948 268.547 481.153 271.95 471.524 275.168C452.268 281.603 425.713 287.285 393.667 289.447C361.608 291.61 332.272 290.552 310.763 287.101C300.004 285.375 291.232 283.054 285.062 280.253C281.976 278.853 279.567 277.344 277.886 275.749C276.209 274.157 275.28 272.503 275.095 270.798Z" stroke="#A5B3E0"/>
<path d="M274.305 272.777C274.451 271.084 275.339 269.478 276.981 267.971C278.625 266.462 281.001 265.076 284.055 263.833C290.164 261.349 298.888 259.478 309.613 258.305C331.055 255.959 360.385 256.411 392.514 260.226C424.619 264.038 451.687 272.277 471.257 280.684C481.043 284.887 488.947 289.129 494.665 292.876C497.525 294.749 499.83 296.494 501.549 298.042C503.118 299.455 504.167 300.678 504.716 301.664C502.773 303.756 498.68 305.966 492.587 307.994C486.281 310.093 477.912 311.97 467.765 313.328C447.474 316.044 420.109 316.677 387.991 312.863C355.862 309.049 327.048 302.597 306.438 295.258C296.129 291.587 287.899 287.703 282.337 283.833C279.555 281.897 277.463 279.98 276.109 278.115C274.757 276.253 274.16 274.471 274.305 272.777Z" stroke="#A5B3E0"/>
<path d="M282.964 266.648C283.618 265.095 284.963 263.838 287.006 262.893C289.053 261.946 291.77 261.328 295.099 261.043C301.756 260.473 310.754 261.242 321.473 263.25C342.902 267.266 371.102 276.213 400.985 289.147C430.846 302.072 454.495 317.711 470.85 331.33C479.027 338.14 485.375 344.44 489.762 349.636C491.956 352.235 493.653 354.551 494.844 356.512C495.929 358.3 496.57 359.757 496.802 360.846C494.289 362.254 489.664 363.151 483.163 363.294C476.433 363.443 467.777 362.783 457.561 361.117C437.131 357.785 410.499 350.432 380.627 337.503C350.744 324.569 324.865 310.109 307.182 297.196C298.337 290.736 291.565 284.68 287.366 279.411C285.266 276.776 283.827 274.36 283.086 272.206C282.345 270.056 282.31 268.202 282.964 266.648Z" stroke="#A5B3E0"/>
<path d="M279.449 266.827C280.478 265.491 282.109 264.605 284.346 264.186C286.587 263.766 289.401 263.822 292.731 264.344C299.39 265.388 308.005 268.278 317.996 272.77C337.97 281.75 363.339 297.086 389.358 316.653C415.359 336.206 434.599 356.881 447.204 373.871C453.507 382.367 458.146 389.935 461.141 395.975C462.639 398.996 463.722 401.626 464.397 403.794C465.012 405.771 465.276 407.325 465.23 408.427C462.418 409.178 457.666 408.934 451.265 407.517C444.64 406.051 436.331 403.348 426.747 399.305C407.58 391.22 383.348 377.791 357.338 358.231C331.319 338.663 309.6 318.588 295.518 301.957C288.474 293.639 283.36 286.203 280.567 280.139C279.17 277.106 278.365 274.441 278.178 272.195C277.991 269.953 278.42 268.164 279.449 266.827Z" stroke="#A5B3E0"/>
<path d="M277.486 267.724C278.764 266.61 280.55 266.048 282.843 266.053C285.14 266.057 287.913 266.632 291.106 267.756C297.49 270.004 305.454 274.413 314.468 280.638C332.49 293.082 354.62 312.72 376.576 336.603C398.516 360.468 413.553 384.178 422.738 403.07C427.331 412.517 430.458 420.751 432.253 427.193C433.151 430.414 433.714 433.178 433.963 435.417C434.19 437.459 434.15 439.024 433.891 440.09C430.964 440.305 426.31 439.189 420.25 436.624C413.98 433.97 406.284 429.8 397.585 424.088C380.189 412.666 358.815 395.097 336.867 371.223C314.911 347.34 297.306 323.757 286.591 304.942C281.231 295.531 277.608 287.338 276.017 280.911C275.222 277.696 274.941 274.95 275.189 272.726C275.437 270.505 276.208 268.839 277.486 267.724Z" stroke="#A5B3E0"/>
<path d="M282.441 278.301C279.065 279.121 274.862 277.065 270.069 272.236C265.311 267.442 260.12 260.058 254.815 250.62C244.21 231.751 233.205 204.772 224.326 174.157C215.453 143.566 212.781 116.17 213.192 95.5816C213.398 85.2865 214.374 76.7011 215.729 70.2738C216.406 67.0598 217.176 64.3936 217.987 62.3269C218.73 60.4336 219.494 59.0792 220.227 58.262C222.988 59.3683 226.704 62.4089 231.026 67.3432C235.492 72.442 240.552 79.4991 245.808 88.3488C256.318 106.047 267.595 130.882 276.471 161.485C285.35 192.1 290.414 220.523 291.429 241.722C291.937 252.326 291.43 261.094 289.897 267.418C288.352 273.787 285.817 277.481 282.441 278.301Z" stroke="#A5B3E0"/>
<path d="M284.857 280.9C281.338 280.88 277.737 277.896 274.255 272.115C270.797 266.374 267.562 258.042 264.728 247.71C259.064 227.053 255.036 198.511 253.998 166.984C252.961 135.483 257.195 108.533 262.744 88.8583C265.519 79.02 268.622 71.0082 271.554 65.1595C273.02 62.2347 274.44 59.8584 275.751 58.0677C276.955 56.4234 278.044 55.3035 278.968 54.6944C281.396 56.4151 284.275 60.2251 287.275 66.002C290.372 71.9663 293.56 79.9533 296.492 89.709C302.357 109.219 307.186 135.767 308.224 167.281C309.262 198.807 307.112 227.316 302.806 247.918C300.652 258.223 297.965 266.523 294.883 272.228C291.781 277.973 288.375 280.919 284.857 280.9Z" stroke="#A5B3E0"/>
<path d="M286.851 281.886C283.37 281.216 280.384 277.638 278.058 271.362C275.747 265.126 274.156 256.407 273.35 245.811C271.738 224.627 273.269 196.059 278.333 165.133C283.394 134.233 292.788 108.744 302.078 90.589C306.724 81.511 311.34 74.274 315.371 69.1144C317.386 66.5342 319.25 64.4802 320.892 62.9767C322.402 61.5943 323.698 60.7031 324.731 60.2806C326.801 62.4058 328.914 66.653 330.766 72.8417C332.677 79.2279 334.287 87.6028 335.303 97.6549C337.334 117.757 336.982 144.53 331.919 175.443C326.855 206.368 319.221 233.763 310.981 253.051C306.86 262.699 302.598 270.292 298.448 275.285C294.271 280.309 290.332 282.555 286.851 281.886Z" stroke="#A5B3E0"/>
<path d="M280.918 272.748C277.754 271.103 275.958 266.856 275.617 260.26C275.278 253.705 276.39 245.015 278.83 234.782C283.708 214.323 293.865 187.809 308.152 160.096C322.428 132.406 339.247 111.081 353.737 96.6484C360.983 89.4314 367.642 83.9431 373.103 80.245C375.833 78.3957 378.258 76.9988 380.301 76.0572C382.182 75.1904 383.706 74.7256 384.833 74.6277C386.189 77.2344 386.941 81.8573 386.85 88.2376C386.756 94.8189 385.768 103.19 383.695 112.971C379.551 132.531 371.078 157.693 356.796 185.394C342.509 213.107 326.812 236.741 312.992 252.549C306.08 260.456 299.656 266.383 294.13 269.889C288.57 273.416 284.081 274.393 280.918 272.748Z" stroke="#A5B3E0"/>
<path d="M280.977 276.201C278.293 273.866 277.595 269.359 278.911 262.941C280.218 256.564 283.479 248.483 288.426 239.238C298.317 220.754 314.889 197.716 335.804 174.516C356.702 151.334 378.498 134.873 396.293 124.475C405.19 119.276 413.08 115.597 419.351 113.351C422.487 112.227 425.209 111.465 427.445 111.049C429.502 110.667 431.11 110.585 432.237 110.76C432.913 113.588 432.493 118.207 430.809 124.313C429.071 130.611 426.011 138.415 421.537 147.314C412.59 165.11 398.004 187.251 377.097 210.443C356.182 233.644 334.907 252.59 317.426 264.469C308.682 270.411 300.911 274.568 294.625 276.614C288.3 278.672 283.661 278.537 280.977 276.201Z" stroke="#A5B3E0"/>
<path d="M281.818 278.223C279.617 275.453 279.796 270.932 282.338 264.917C284.863 258.941 289.651 251.665 296.33 243.566C309.685 227.374 330.53 207.976 355.701 189.223C380.852 170.484 405.592 158.464 425.203 151.615C435.009 148.19 443.525 146.061 450.162 145.03C453.481 144.514 456.321 144.275 458.613 144.282C460.72 144.289 462.324 144.506 463.406 144.884C463.526 147.765 462.218 152.19 459.373 157.829C456.438 163.649 451.903 170.692 445.758 178.54C433.469 194.236 414.763 213.127 389.601 231.873C364.43 250.627 339.725 265.167 320.137 273.518C310.34 277.695 301.85 280.312 295.236 281.145C288.58 281.983 284.02 280.993 281.818 278.223Z" stroke="#A5B3E0"/>
<path d="M277.486 268.344C276.271 265.08 277.899 260.903 282.291 256.05C286.651 251.231 293.606 245.896 302.643 240.375C320.713 229.336 347.014 217.613 377.263 207.831C407.489 198.056 435.147 194.449 456.204 194.1C466.733 193.925 475.604 194.565 482.314 195.652C485.67 196.196 488.477 196.85 490.677 197.567C492.692 198.223 494.159 198.919 495.075 199.604C494.255 202.339 491.568 206.076 487.016 210.474C482.313 215.018 475.677 220.213 467.234 225.665C450.349 236.568 426.266 248.479 396.029 258.257C365.779 268.039 337.34 274.017 315.82 275.781C305.055 276.664 296.051 276.489 289.426 275.223C282.753 273.948 278.7 271.608 277.486 268.344Z" stroke="#A5B3E0"/>
<path d="M275.095 270.798C274.909 269.093 275.466 267.339 276.775 265.545C278.086 263.749 280.134 261.939 282.872 260.145C288.346 256.559 296.489 253.097 306.718 249.955C327.167 243.673 355.846 238.701 387.905 236.538C419.939 234.377 447.918 237.526 468.62 242.225C478.972 244.575 487.496 247.311 493.794 249.959C496.944 251.284 499.528 252.584 501.503 253.798C503.307 254.907 504.568 255.925 505.294 256.8C503.805 259.228 500.241 262.173 494.69 265.306C488.948 268.547 481.153 271.95 471.524 275.168C452.268 281.603 425.713 287.285 393.667 289.447C361.608 291.61 332.272 290.552 310.763 287.101C300.004 285.375 291.232 283.054 285.062 280.253C281.976 278.853 279.567 277.344 277.886 275.749C276.209 274.157 275.28 272.503 275.095 270.798Z" stroke="#A5B3E0"/>
<path d="M274.305 272.777C274.451 271.084 275.339 269.478 276.981 267.971C278.625 266.462 281.001 265.076 284.055 263.833C290.164 261.349 298.888 259.478 309.613 258.305C331.055 255.959 360.385 256.411 392.514 260.226C424.619 264.038 451.687 272.277 471.257 280.684C481.043 284.887 488.947 289.129 494.665 292.876C497.525 294.749 499.83 296.494 501.549 298.042C503.118 299.455 504.167 300.678 504.716 301.664C502.773 303.756 498.68 305.966 492.587 307.994C486.281 310.093 477.912 311.97 467.765 313.328C447.474 316.044 420.109 316.677 387.991 312.863C355.862 309.049 327.048 302.597 306.438 295.258C296.129 291.587 287.899 287.703 282.337 283.833C279.555 281.897 277.463 279.98 276.109 278.115C274.757 276.253 274.16 274.471 274.305 272.777Z" stroke="#A5B3E0"/>
<path d="M282.964 266.648C283.618 265.095 284.963 263.838 287.006 262.893C289.053 261.946 291.77 261.328 295.099 261.043C301.756 260.473 310.754 261.242 321.473 263.25C342.902 267.266 371.102 276.213 400.985 289.147C430.846 302.072 454.495 317.711 470.85 331.33C479.027 338.14 485.375 344.44 489.762 349.636C491.956 352.235 493.653 354.551 494.844 356.512C495.929 358.3 496.57 359.757 496.802 360.846C494.289 362.254 489.664 363.151 483.163 363.294C476.433 363.443 467.777 362.783 457.561 361.117C437.131 357.785 410.499 350.432 380.627 337.503C350.744 324.569 324.865 310.109 307.182 297.196C298.337 290.736 291.565 284.68 287.366 279.411C285.266 276.776 283.827 274.36 283.086 272.206C282.345 270.056 282.31 268.202 282.964 266.648Z" stroke="#A5B3E0"/>
<path d="M279.449 266.827C280.478 265.491 282.109 264.605 284.346 264.186C286.587 263.766 289.401 263.822 292.731 264.344C299.39 265.388 308.005 268.278 317.996 272.77C337.97 281.75 363.339 297.086 389.358 316.653C415.359 336.206 434.599 356.881 447.204 373.871C453.507 382.367 458.146 389.935 461.141 395.975C462.639 398.996 463.722 401.626 464.397 403.794C465.012 405.771 465.276 407.325 465.23 408.427C462.418 409.178 457.666 408.934 451.265 407.517C444.64 406.051 436.331 403.348 426.747 399.305C407.58 391.22 383.348 377.791 357.338 358.231C331.319 338.663 309.6 318.588 295.518 301.957C288.474 293.639 283.36 286.203 280.567 280.139C279.17 277.106 278.365 274.441 278.178 272.195C277.991 269.953 278.42 268.164 279.449 266.827Z" stroke="#A5B3E0"/>
<path d="M277.486 267.724C278.764 266.61 280.55 266.048 282.843 266.053C285.14 266.057 287.913 266.632 291.106 267.756C297.49 270.004 305.454 274.413 314.468 280.638C332.49 293.082 354.62 312.72 376.576 336.603C398.516 360.468 413.553 384.178 422.738 403.07C427.331 412.517 430.458 420.751 432.253 427.193C433.151 430.414 433.714 433.178 433.963 435.417C434.19 437.459 434.15 439.024 433.891 440.09C430.964 440.305 426.31 439.189 420.25 436.624C413.98 433.97 406.284 429.8 397.585 424.088C380.189 412.666 358.815 395.097 336.867 371.223C314.911 347.34 297.306 323.757 286.591 304.942C281.231 295.531 277.608 287.338 276.017 280.911C275.222 277.696 274.941 274.95 275.189 272.726C275.437 270.505 276.208 268.839 277.486 267.724Z" stroke="#A5B3E0"/>
<path d="M283.47 270.938C286.89 270.284 290.991 272.538 295.541 277.585C300.059 282.596 304.878 290.209 309.706 299.876C319.359 319.201 328.999 346.632 336.328 377.583C343.651 408.51 344.932 435.95 343.473 456.455C342.744 466.708 341.331 475.219 339.649 481.561C338.808 484.732 337.902 487.352 336.985 489.373C336.145 491.224 335.311 492.537 334.536 493.316C331.83 492.079 328.267 488.867 324.192 483.738C319.983 478.438 315.279 471.157 310.469 462.079C300.852 443.926 290.83 418.619 283.505 387.68C276.176 356.729 272.555 328.148 272.617 306.965C272.648 296.37 273.6 287.654 275.456 281.424C277.326 275.15 280.051 271.591 283.47 270.938Z" stroke="#A5B3E0"/>
<path d="M268.966 273.951C270.442 273.093 272.316 272.867 274.585 273.284C276.859 273.702 279.495 274.762 282.443 276.434C288.34 279.778 295.392 285.514 303.143 293.213C318.639 308.603 336.847 331.754 354.084 359.016C371.309 386.259 381.729 412.106 387.264 432.198C390.031 442.245 391.575 450.844 392.14 457.454C392.422 460.76 392.458 463.559 392.283 465.788C392.123 467.823 391.789 469.344 391.332 470.338C388.394 470.021 383.996 468.093 378.48 464.498C372.773 460.78 365.94 455.324 358.405 448.183C343.336 433.902 325.487 412.907 308.256 385.655C291.019 358.392 278.034 332.206 270.969 311.914C267.436 301.765 265.393 293.116 265.029 286.557C264.846 283.277 265.085 280.546 265.75 278.42C266.414 276.297 267.49 274.809 268.966 273.951Z" stroke="#A5B3E0"/>
<path d="M283.359 276.308C281.82 277.059 279.927 277.154 277.688 276.581C275.445 276.007 272.886 274.769 270.058 272.901C264.404 269.165 257.768 262.968 250.576 254.771C236.197 238.383 219.67 214.087 204.413 185.768C189.168 157.47 180.626 131.033 176.552 110.661C174.514 100.475 173.595 91.8126 173.512 85.1982C173.47 81.8905 173.637 79.1034 173.974 76.8983C174.282 74.8835 174.727 73.3931 175.258 72.4361C178.173 72.9555 182.432 75.1789 187.689 79.1392C193.125 83.2354 199.563 89.1377 206.58 96.7653C220.612 112.019 236.937 134.146 252.188 162.455C267.445 190.774 278.528 217.726 284.118 238.403C286.914 248.746 288.328 257.491 288.215 264.041C288.159 267.316 287.721 270.016 286.902 272.085C286.084 274.15 284.899 275.557 283.359 276.308Z" stroke="#A5B3E0"/>
<path d="M281.185 268.229C284.704 268.419 288.156 271.57 291.346 277.501C294.515 283.393 297.329 291.856 299.639 302.294C304.256 323.162 306.835 351.812 306.271 383.29C305.707 414.744 300.101 441.404 293.547 460.748C290.27 470.42 286.759 478.257 283.527 483.944C281.911 486.789 280.369 489.089 278.967 490.81C277.679 492.391 276.532 493.454 275.576 494.016C273.234 492.183 270.547 488.245 267.839 482.34C265.043 476.244 262.259 468.127 259.821 458.259C254.945 438.525 251.462 411.824 252.026 380.358C252.59 348.879 256.19 320.564 261.547 300.235C264.226 290.067 267.337 281.924 270.711 276.386C274.107 270.811 277.665 268.039 281.185 268.229Z" stroke="#A5B3E0"/>
<path d="M279.241 267.149C282.69 267.986 285.495 271.698 287.504 278.067C289.5 284.396 290.648 293.165 290.916 303.767C291.452 324.963 288.467 353.369 281.827 383.952C275.193 414.51 264.497 439.463 254.277 457.11C249.167 465.933 244.18 472.923 239.885 477.871C237.737 480.345 235.767 482.302 234.047 483.721C232.466 485.026 231.124 485.851 230.069 486.222C228.106 484.003 226.207 479.666 224.669 473.407C223.082 466.948 221.896 458.52 221.391 448.45C220.38 428.312 222.094 401.64 228.731 371.069C235.371 340.486 244.403 313.548 253.629 294.72C258.243 285.303 262.894 277.94 267.3 273.165C271.735 268.359 275.791 266.312 279.241 267.149Z" stroke="#A5B3E0"/>
<path d="M284.71 276.547C287.791 278.34 289.373 282.661 289.379 289.253C289.385 295.804 287.83 304.413 284.869 314.496C278.947 334.653 267.435 360.592 251.73 387.524C236.037 414.433 218.124 434.874 202.89 448.557C195.272 455.399 188.331 460.547 182.678 463.968C179.851 465.679 177.354 466.953 175.262 467.793C173.336 468.565 171.788 468.955 170.655 468.997C169.43 466.333 168.913 461.688 169.329 455.332C169.757 448.776 171.171 440.479 173.742 430.829C178.884 411.532 188.642 386.86 204.341 359.939C220.046 333.007 236.955 310.21 251.587 295.123C258.906 287.577 265.636 281.98 271.343 278.754C277.086 275.508 281.628 274.753 284.71 276.547Z" stroke="#A5B3E0"/>
<path d="M284.827 273.101C287.395 275.56 287.863 280.087 286.221 286.421C284.588 292.715 280.914 300.611 275.494 309.587C264.658 327.532 246.903 349.693 224.795 371.805C202.705 393.898 180.058 409.248 161.723 418.748C152.556 423.498 144.473 426.783 138.084 428.717C134.89 429.684 132.126 430.312 129.868 430.617C127.79 430.899 126.178 430.903 125.058 430.673C124.526 427.821 125.181 423.237 127.177 417.232C129.236 411.037 132.695 403.407 137.624 394.753C147.482 377.448 163.203 356.084 185.302 333.982C207.41 311.87 229.663 294.017 247.759 283.025C256.81 277.527 264.797 273.76 271.191 272.026C277.626 270.282 282.26 270.643 284.827 273.101Z" stroke="#A5B3E0"/>
<path d="M284.089 271.045C286.151 273.913 285.742 278.411 282.892 284.284C280.061 290.119 274.901 297.139 267.805 304.888C253.618 320.381 231.774 338.704 205.633 356.176C179.513 373.633 154.146 384.413 134.174 390.287C124.188 393.224 115.558 394.933 108.865 395.638C105.517 395.991 102.663 396.092 100.37 395.973C98.2621 395.863 96.6676 395.569 95.6049 395.14C95.631 392.261 97.165 387.914 100.298 382.431C103.531 376.772 108.427 369.972 114.975 362.446C128.07 347.397 147.749 329.474 173.879 312.01C200.02 294.538 225.481 281.245 245.505 273.872C255.521 270.185 264.15 267.988 270.81 267.48C277.514 266.968 282.026 268.177 284.089 271.045Z" stroke="#A5B3E0"/>
<path d="M287.922 281.104C288.971 284.417 287.13 288.502 282.488 293.126C277.88 297.718 270.65 302.698 261.325 307.763C242.684 317.888 215.769 328.297 185.003 336.577C154.261 344.852 126.402 347.103 105.314 346.427C94.7687 346.09 85.9248 345.02 79.2652 343.61C75.9349 342.905 73.1594 342.117 70.9945 341.295C69.0116 340.543 67.5785 339.778 66.6968 339.05C67.6566 336.364 70.5355 332.769 75.3137 328.607C80.2515 324.305 87.1555 319.448 95.8813 314.424C113.331 304.376 138.035 293.673 168.789 285.396C199.555 277.115 228.317 272.538 249.941 271.826C260.757 271.47 269.759 272.082 276.323 273.666C282.936 275.261 286.872 277.791 287.922 281.104Z" stroke="#A5B3E0"/>
<path d="M290.44 278.774C290.539 280.483 289.893 282.204 288.492 283.928C287.088 285.656 284.947 287.361 282.116 289.015C276.456 292.324 268.132 295.379 257.737 298.014C236.955 303.283 208.005 306.844 175.816 307.442C143.651 308.039 115.814 303.539 95.3378 297.848C85.0988 295.003 76.7079 291.861 70.5405 288.914C67.4564 287.44 64.9362 286.019 63.0219 284.713C61.2727 283.519 60.0631 282.444 59.3815 281.536C60.9949 279.187 64.7105 276.425 70.4245 273.572C76.3345 270.62 84.308 267.606 94.1067 264.867C113.702 259.388 140.563 255.015 172.74 254.417C204.929 253.82 234.23 256.301 255.578 260.787C266.256 263.031 274.916 265.772 280.948 268.863C283.964 270.409 286.298 272.031 287.899 273.703C289.496 275.371 290.341 277.065 290.44 278.774Z" stroke="#A5B3E0"/>
<path d="M291.331 276.839C291.099 278.52 290.129 280.078 288.41 281.5C286.688 282.925 284.24 284.191 281.12 285.281C274.881 287.461 266.056 288.902 255.265 289.55C233.689 290.846 204.364 288.97 172.408 283.604C140.476 278.243 113.81 268.713 94.6544 259.381C85.076 254.715 77.3827 250.102 71.8513 246.089C69.0851 244.083 66.8666 242.231 65.2254 240.604C63.7279 239.119 62.7401 237.849 62.2407 236.839C64.2915 234.849 68.4995 232.844 74.6999 231.119C81.1165 229.333 89.5862 227.868 99.8084 227.008C120.251 225.287 147.666 225.987 179.61 231.35C211.566 236.715 240.07 244.548 260.321 252.866C270.449 257.027 278.487 261.299 283.856 265.428C286.541 267.492 288.537 269.505 289.798 271.43C291.056 273.352 291.563 275.158 291.331 276.839Z" stroke="#A5B3E0"/>
<path d="M282.355 282.528C281.622 284.045 280.212 285.232 278.119 286.075C276.023 286.919 273.273 287.403 269.927 287.526C263.237 287.771 254.273 286.566 243.649 284.043C222.41 278.998 194.647 268.708 165.402 254.361C136.179 240.024 113.31 223.284 97.6376 208.913C89.8008 201.726 83.7692 195.138 79.6437 189.744C77.5807 187.046 75.9996 184.655 74.9083 182.642C73.9137 180.808 73.3454 179.323 73.1689 178.226C75.7554 176.945 80.429 176.276 86.9412 176.449C93.6833 176.628 102.312 177.706 112.449 179.864C132.723 184.179 158.998 192.804 188.232 207.145C217.476 221.492 242.637 237.165 259.675 250.898C268.198 257.767 274.666 264.134 278.599 269.591C280.566 272.319 281.884 274.799 282.516 276.982C283.148 279.161 283.089 281.011 282.355 282.528Z" stroke="#A5B3E0"/>
<path d="M285.879 282.521C284.782 283.803 283.104 284.606 280.845 284.915C278.582 285.225 275.769 285.032 272.463 284.35C265.852 282.986 257.378 279.686 247.609 274.722C228.079 264.799 203.474 248.277 178.433 227.506C153.41 206.75 135.208 185.204 123.459 167.653C117.584 158.878 113.327 151.107 110.637 144.941C109.292 141.857 108.342 139.182 107.777 136.987C107.261 134.987 107.076 133.425 107.178 132.329C110.03 131.717 114.773 132.191 121.106 133.915C127.661 135.699 135.838 138.797 145.222 143.293C163.99 152.285 187.555 166.851 212.587 187.615C237.628 208.386 258.341 229.455 271.586 246.718C278.211 255.353 282.951 263.015 285.438 269.196C286.681 272.287 287.351 274.983 287.424 277.231C287.498 279.475 286.977 281.238 285.879 282.521Z" stroke="#A5B3E0"/>
<path d="M287.89 281.722C286.555 282.77 284.739 283.244 282.445 283.128C280.146 283.011 277.401 282.304 274.263 281.028C267.989 278.476 260.244 273.694 251.541 267.051C234.14 253.768 212.994 233.116 192.238 208.24C171.497 183.382 157.656 159.015 149.425 139.735C145.31 130.095 142.6 121.733 141.131 115.225C140.396 111.97 139.974 109.187 139.839 106.944C139.715 104.896 139.834 103.338 140.148 102.288C143.088 102.216 147.688 103.555 153.621 106.407C159.76 109.357 167.25 113.888 175.664 120.005C192.49 132.238 212.984 150.792 233.733 175.659C254.489 200.535 270.906 224.9 280.672 244.177C285.557 253.819 288.765 262.163 290.03 268.648C290.663 271.891 290.804 274.643 290.443 276.848C290.082 279.049 289.226 280.673 287.89 281.722Z" stroke="#A5B3E0"/>
</g>
<defs>
<clipPath id="clip0_143_35">
<rect width="578" height="552" fill="white"/>
</clipPath>
</defs>
</svg>
