<svg width="510" height="502" viewBox="0 0 510 502" fill="none" xmlns="http://www.w3.org/2000/svg">
<path d="M260.106 252.233C257.549 252.864 254.334 251.317 250.629 247.57C246.958 243.857 242.953 238.129 238.86 230.794C230.678 216.132 222.204 195.153 215.386 171.335C208.575 147.54 206.567 126.22 206.934 110.194C207.118 102.18 207.895 95.4976 208.96 90.4963C209.492 87.9952 210.094 85.9228 210.726 84.3182C211.288 82.8899 211.861 81.8659 212.404 81.2364C214.508 82.1049 217.342 84.4352 220.644 88.2222C224.093 92.1763 227.999 97.6548 232.055 104.531C240.165 118.282 248.855 137.59 255.669 161.396C262.487 185.215 266.348 207.332 267.086 223.83C267.455 232.083 267.041 238.902 265.84 243.817C264.627 248.777 262.663 251.602 260.106 252.233Z" stroke="#DD92A0"/>
<path d="M262.003 254.248C259.339 254.241 256.582 251.977 253.895 247.487C251.232 243.037 248.744 236.566 246.571 228.53C242.226 212.465 239.168 190.252 238.436 165.706C237.706 141.184 241.053 120.195 245.403 104.868C247.579 97.204 250.003 90.9631 252.289 86.4081C253.432 84.1302 254.537 82.2814 255.554 80.8896C256.461 79.6475 257.278 78.7985 257.967 78.3235C259.81 79.6621 262 82.5846 264.287 87.0235C266.673 91.6536 269.126 97.86 271.378 105.447C275.88 120.619 279.565 141.275 280.296 165.809C281.027 190.356 279.292 212.556 275.905 228.602C274.21 236.629 272.107 243.088 269.709 247.527C267.29 252.004 264.666 254.254 262.003 254.248Z" stroke="#DD92A0"/>
<path d="M263.57 255.013C260.936 254.512 258.647 251.789 256.858 246.911C255.084 242.073 253.871 235.298 253.271 227.051C252.07 210.567 253.324 188.321 257.326 164.228C261.324 140.16 268.671 120.296 275.919 106.143C279.543 99.0666 283.139 93.4251 286.274 89.4033C287.842 87.3921 289.29 85.7926 290.562 84.6229C291.7 83.5772 292.672 82.8994 293.445 82.5641C295.009 84.2113 296.612 87.4707 298.017 92.2294C299.483 97.1904 300.712 103.702 301.476 111.524C303.004 127.166 302.669 148.01 298.669 172.09C294.667 196.183 288.68 217.529 282.244 232.561C279.025 240.081 275.704 245.995 272.481 249.882C269.231 253.801 266.205 255.514 263.57 255.013Z" stroke="#DD92A0"/>
<path d="M259.019 247.921C256.628 246.678 255.245 243.434 254.996 238.302C254.749 233.212 255.63 226.452 257.547 218.481C261.378 202.545 269.319 181.878 280.47 160.265C291.609 138.675 304.705 122.036 315.977 110.768C321.614 105.134 326.789 100.848 331.029 97.9595C333.15 96.515 335.029 95.4247 336.611 94.6897C338.026 94.0319 339.169 93.6741 340.017 93.5831C341.028 95.596 341.587 99.1457 341.503 104.057C341.415 109.174 340.63 115.689 338.999 123.307C335.739 138.541 329.108 158.15 317.963 179.752C306.812 201.364 294.579 219.801 283.824 232.138C278.444 238.309 273.452 242.932 269.168 245.667C264.848 248.425 261.411 249.164 259.019 247.921Z" stroke="#DD92A0"/>
<path d="M259.079 250.626C257.052 248.857 256.508 245.406 257.543 240.409C258.57 235.453 261.115 229.162 264.973 221.954C272.687 207.544 285.598 189.569 301.88 171.454C318.146 153.357 335.091 140.493 348.916 132.358C355.83 128.29 361.956 125.409 366.82 123.648C369.252 122.767 371.361 122.169 373.09 121.841C374.636 121.548 375.843 121.478 376.694 121.594C377.18 123.773 376.843 127.321 375.537 132.024C374.176 136.926 371.786 143.005 368.295 149.942C361.314 163.814 349.948 181.086 333.674 199.191C317.391 217.306 300.841 232.107 287.256 241.394C280.46 246.039 274.429 249.289 269.56 250.893C264.65 252.509 261.107 252.395 259.079 250.626Z" stroke="#DD92A0"/>
<path d="M259.743 252.215C258.082 250.115 258.208 246.647 260.193 241.96C262.162 237.313 265.887 231.645 271.087 225.324C281.483 212.69 297.699 197.538 317.273 182.876C336.827 168.229 356.047 158.815 371.272 153.438C378.886 150.749 385.493 149.073 390.638 148.255C393.211 147.847 395.41 147.654 397.181 147.654C398.764 147.655 399.968 147.81 400.787 148.08C400.846 150.296 399.83 153.697 397.636 158.043C395.348 162.575 391.816 168.065 387.031 174.189C377.463 186.435 362.908 201.185 343.344 215.84C323.77 230.502 304.569 241.879 289.358 248.425C281.749 251.7 275.164 253.754 270.045 254.416C264.881 255.084 261.404 254.315 259.743 252.215Z" stroke="#DD92A0"/>
<path d="M256.422 244.563C255.51 242.086 256.743 238.872 260.16 235.085C263.546 231.333 268.946 227.167 275.969 222.848C290.009 214.214 310.44 205.024 333.934 197.336C357.404 189.656 378.867 186.784 395.199 186.462C403.366 186.302 410.242 186.779 415.439 187.609C418.038 188.024 420.209 188.525 421.907 189.076C423.419 189.566 424.52 190.083 425.218 190.588C424.557 192.685 422.488 195.558 418.988 198.953C415.333 202.498 410.177 206.555 403.615 210.819C390.494 219.345 371.784 228.674 348.303 236.358C324.809 244.046 302.732 248.767 286.037 250.19C277.685 250.902 270.709 250.787 265.585 249.819C260.414 248.842 257.334 247.04 256.422 244.563Z" stroke="#DD92A0"/>
<path d="M254.567 246.506C254.431 245.212 254.855 243.87 255.864 242.485C256.876 241.096 258.458 239.69 260.581 238.291C264.826 235.493 271.143 232.781 279.084 230.311C294.959 225.374 317.22 221.435 342.099 219.676C366.955 217.918 388.65 220.304 404.695 223.913C412.719 225.718 419.321 227.827 424.195 229.872C426.633 230.895 428.63 231.898 430.153 232.835C431.505 233.667 432.451 234.427 433.008 235.078C431.838 236.936 429.101 239.201 424.837 241.625C420.381 244.158 414.33 246.825 406.854 249.352C391.904 254.406 371.291 258.892 346.424 260.651C321.544 262.41 298.788 261.655 282.114 259.019C273.772 257.7 266.981 255.915 262.213 253.755C259.829 252.674 257.975 251.511 256.687 250.285C255.402 249.062 254.704 247.799 254.567 246.506Z" stroke="#DD92A0"/>
<path d="M253.949 248.07C254.063 246.784 254.739 245.555 256.002 244.39C257.269 243.222 259.104 242.142 261.471 241.17C266.204 239.226 272.967 237.75 281.289 236.812C297.925 234.936 320.678 235.218 345.598 238.114C370.495 241.006 391.472 247.357 406.631 253.855C414.211 257.104 420.329 260.386 424.751 263.286C426.962 264.736 428.743 266.086 430.067 267.283C431.241 268.344 432.029 269.259 432.453 269.997C430.939 271.592 427.799 273.295 423.123 274.87C418.233 276.516 411.74 277.997 403.867 279.078C388.123 281.239 366.893 281.796 341.984 278.902C317.064 276.007 294.726 271.051 278.758 265.387C270.77 262.553 264.403 259.552 260.107 256.559C257.959 255.062 256.351 253.583 255.315 252.147C254.281 250.715 253.835 249.355 253.949 248.07Z" stroke="#DD92A0"/>
<path d="M260.675 243.308C261.173 242.128 262.196 241.162 263.767 240.429C265.342 239.694 267.438 239.208 270.015 238.979C275.168 238.521 282.138 239.097 290.448 240.635C307.059 243.71 328.915 250.61 352.072 260.611C375.206 270.604 393.514 282.723 406.166 293.285C412.493 298.567 417.399 303.454 420.787 307.485C422.48 309.501 423.789 311.296 424.704 312.814C425.514 314.157 425.996 315.251 426.183 316.072C424.239 317.138 420.697 317.832 415.713 317.957C410.498 318.089 403.789 317.596 395.869 316.323C380.031 313.778 359.389 308.116 336.244 298.119C313.088 288.118 293.045 276.92 279.36 266.91C272.514 261.903 267.282 257.209 264.045 253.126C262.427 251.085 261.324 249.217 260.759 247.558C260.195 245.903 260.177 244.488 260.675 243.308Z" stroke="#DD92A0"/>
<path d="M257.934 243.479C258.715 242.462 259.956 241.779 261.674 241.451C263.397 241.122 265.567 241.157 268.142 241.555C273.294 242.35 279.962 244.576 287.702 248.049C303.172 254.992 322.817 266.872 342.96 282.048C363.084 297.209 377.96 313.259 387.697 326.454C392.565 333.052 396.144 338.93 398.451 343.62C399.604 345.966 400.436 348.007 400.953 349.686C401.41 351.174 401.609 352.342 401.587 353.176C399.421 353.736 395.786 353.554 390.882 352.479C385.752 351.354 379.317 349.271 371.893 346.147C357.046 339.899 338.28 329.501 318.146 314.332C298.003 299.156 281.201 283.577 270.318 270.665C264.874 264.206 260.93 258.436 258.782 253.733C257.709 251.381 257.096 249.32 256.957 247.588C256.818 245.861 257.153 244.495 257.934 243.479Z" stroke="#DD92A0"/>
<path d="M256.394 244.197C257.363 243.349 258.722 242.912 260.483 242.91C262.248 242.908 264.385 243.345 266.853 244.211C271.789 245.942 277.949 249.351 284.927 254.175C298.875 263.819 315.998 279.056 332.978 297.602C349.942 316.13 361.55 334.552 368.63 349.235C372.17 356.578 374.574 362.978 375.951 367.983C376.639 370.486 377.068 372.632 377.255 374.367C377.42 375.905 377.392 377.083 377.209 377.894C374.962 378.04 371.404 377.188 366.764 375.229C361.912 373.18 355.955 369.954 349.222 365.529C335.756 356.678 319.216 343.051 302.244 324.514C285.264 305.968 271.662 287.648 263.395 273.029C259.26 265.716 256.473 259.353 255.257 254.365C254.649 251.871 254.44 249.746 254.636 248.03C254.832 246.318 255.425 245.046 256.394 244.197Z" stroke="#DD92A0"/>
<path d="M260.106 252.233C257.549 252.864 254.334 251.317 250.629 247.57C246.958 243.857 242.953 238.129 238.86 230.794C230.678 216.132 222.204 195.153 215.386 171.335C208.575 147.54 206.567 126.22 206.934 110.194C207.118 102.18 207.895 95.4976 208.96 90.4963C209.492 87.9952 210.094 85.9228 210.726 84.3182C211.288 82.8899 211.861 81.8659 212.404 81.2364C214.508 82.1049 217.342 84.4352 220.644 88.2222C224.093 92.1763 227.999 97.6548 232.055 104.531C240.165 118.282 248.855 137.59 255.669 161.396C262.487 185.215 266.348 207.332 267.086 223.83C267.455 232.083 267.041 238.902 265.84 243.817C264.627 248.777 262.663 251.602 260.106 252.233Z" stroke="#DD92A0"/>
<path d="M262.003 254.248C259.339 254.241 256.582 251.977 253.895 247.487C251.232 243.037 248.744 236.566 246.571 228.53C242.226 212.465 239.168 190.252 238.436 165.706C237.706 141.184 241.053 120.195 245.403 104.868C247.579 97.204 250.003 90.9631 252.289 86.4081C253.432 84.1302 254.537 82.2814 255.554 80.8896C256.461 79.6475 257.278 78.7985 257.967 78.3235C259.81 79.6621 262 82.5846 264.287 87.0235C266.673 91.6536 269.126 97.86 271.378 105.447C275.88 120.619 279.565 141.275 280.296 165.809C281.027 190.356 279.292 212.556 275.905 228.602C274.21 236.629 272.107 243.088 269.709 247.527C267.29 252.004 264.666 254.254 262.003 254.248Z" stroke="#DD92A0"/>
<path d="M263.57 255.013C260.936 254.512 258.647 251.789 256.858 246.911C255.084 242.073 253.871 235.298 253.271 227.051C252.07 210.567 253.324 188.321 257.326 164.228C261.324 140.16 268.671 120.296 275.919 106.143C279.543 99.0666 283.139 93.4251 286.274 89.4033C287.842 87.3921 289.29 85.7926 290.562 84.6229C291.7 83.5772 292.672 82.8994 293.445 82.5641C295.009 84.2113 296.612 87.4707 298.017 92.2294C299.483 97.1904 300.712 103.702 301.476 111.524C303.004 127.166 302.669 148.01 298.669 172.09C294.667 196.183 288.68 217.529 282.244 232.561C279.025 240.081 275.704 245.995 272.481 249.882C269.231 253.801 266.205 255.514 263.57 255.013Z" stroke="#DD92A0"/>
<path d="M259.019 247.921C256.628 246.678 255.245 243.434 254.996 238.302C254.749 233.212 255.63 226.452 257.547 218.481C261.378 202.545 269.319 181.878 280.47 160.265C291.609 138.675 304.705 122.036 315.977 110.768C321.614 105.134 326.789 100.848 331.029 97.9595C333.15 96.515 335.029 95.4247 336.611 94.6897C338.026 94.0319 339.169 93.6741 340.017 93.5831C341.028 95.596 341.587 99.1457 341.503 104.057C341.415 109.174 340.63 115.689 338.999 123.307C335.739 138.541 329.108 158.15 317.963 179.752C306.812 201.364 294.579 219.801 283.824 232.138C278.444 238.309 273.452 242.932 269.168 245.667C264.848 248.425 261.411 249.164 259.019 247.921Z" stroke="#DD92A0"/>
<path d="M259.079 250.626C257.052 248.857 256.508 245.406 257.543 240.409C258.57 235.453 261.115 229.162 264.973 221.954C272.687 207.544 285.598 189.569 301.88 171.454C318.146 153.357 335.091 140.493 348.916 132.358C355.83 128.29 361.956 125.409 366.82 123.648C369.252 122.767 371.361 122.169 373.09 121.841C374.636 121.548 375.843 121.478 376.694 121.594C377.18 123.773 376.843 127.321 375.537 132.024C374.176 136.926 371.786 143.005 368.295 149.942C361.314 163.814 349.948 181.086 333.674 199.191C317.391 217.306 300.841 232.107 287.256 241.394C280.46 246.039 274.429 249.289 269.56 250.893C264.65 252.509 261.107 252.395 259.079 250.626Z" stroke="#DD92A0"/>
<path d="M259.743 252.215C258.082 250.115 258.208 246.647 260.193 241.96C262.162 237.313 265.887 231.645 271.087 225.324C281.483 212.69 297.699 197.538 317.273 182.876C336.827 168.229 356.047 158.815 371.272 153.438C378.886 150.749 385.493 149.073 390.638 148.255C393.211 147.847 395.41 147.654 397.181 147.654C398.764 147.655 399.968 147.81 400.787 148.08C400.846 150.296 399.83 153.697 397.636 158.043C395.348 162.575 391.816 168.065 387.031 174.189C377.463 186.435 362.908 201.185 343.344 215.84C323.77 230.502 304.569 241.879 289.358 248.425C281.749 251.7 275.164 253.754 270.045 254.416C264.881 255.084 261.404 254.315 259.743 252.215Z" stroke="#DD92A0"/>
<path d="M256.422 244.563C255.51 242.086 256.743 238.872 260.16 235.085C263.546 231.333 268.946 227.167 275.969 222.848C290.009 214.214 310.44 205.024 333.934 197.336C357.404 189.656 378.867 186.784 395.199 186.462C403.366 186.302 410.242 186.779 415.439 187.609C418.038 188.024 420.209 188.525 421.907 189.076C423.419 189.566 424.52 190.083 425.218 190.588C424.557 192.685 422.488 195.558 418.988 198.953C415.333 202.498 410.177 206.555 403.615 210.819C390.494 219.345 371.784 228.674 348.303 236.358C324.809 244.046 302.732 248.767 286.037 250.19C277.685 250.902 270.709 250.787 265.585 249.819C260.414 248.842 257.334 247.04 256.422 244.563Z" stroke="#DD92A0"/>
<path d="M254.567 246.506C254.431 245.212 254.855 243.87 255.864 242.485C256.876 241.096 258.458 239.69 260.581 238.291C264.826 235.493 271.143 232.781 279.084 230.311C294.959 225.374 317.22 221.435 342.099 219.676C366.955 217.918 388.65 220.304 404.695 223.913C412.719 225.718 419.321 227.827 424.195 229.872C426.633 230.895 428.63 231.898 430.153 232.835C431.505 233.667 432.451 234.427 433.008 235.078C431.838 236.936 429.101 239.201 424.837 241.625C420.381 244.158 414.33 246.825 406.854 249.352C391.904 254.406 371.291 258.892 346.424 260.651C321.544 262.41 298.788 261.655 282.114 259.019C273.772 257.7 266.981 255.915 262.213 253.755C259.829 252.674 257.975 251.511 256.687 250.285C255.402 249.062 254.704 247.799 254.567 246.506Z" stroke="#DD92A0"/>
<path d="M253.949 248.07C254.063 246.784 254.739 245.555 256.002 244.39C257.269 243.222 259.104 242.142 261.471 241.17C266.204 239.226 272.967 237.75 281.289 236.812C297.925 234.936 320.678 235.218 345.598 238.114C370.495 241.006 391.472 247.357 406.631 253.855C414.211 257.104 420.329 260.386 424.751 263.286C426.962 264.736 428.743 266.086 430.067 267.283C431.241 268.344 432.029 269.259 432.453 269.997C430.939 271.592 427.799 273.295 423.123 274.87C418.233 276.516 411.74 277.997 403.867 279.078C388.123 281.239 366.893 281.796 341.984 278.902C317.064 276.007 294.726 271.051 278.758 265.387C270.77 262.553 264.403 259.552 260.107 256.559C257.959 255.062 256.351 253.583 255.315 252.147C254.281 250.715 253.835 249.355 253.949 248.07Z" stroke="#DD92A0"/>
<path d="M260.675 243.308C261.173 242.128 262.196 241.162 263.767 240.429C265.342 239.694 267.438 239.208 270.015 238.979C275.168 238.521 282.138 239.097 290.448 240.635C307.059 243.71 328.915 250.61 352.072 260.611C375.206 270.604 393.514 282.723 406.166 293.285C412.493 298.567 417.399 303.454 420.787 307.485C422.48 309.501 423.789 311.296 424.704 312.814C425.514 314.157 425.996 315.251 426.183 316.072C424.239 317.138 420.697 317.832 415.713 317.957C410.498 318.089 403.789 317.596 395.869 316.323C380.031 313.778 359.389 308.116 336.244 298.119C313.088 288.118 293.045 276.92 279.36 266.91C272.514 261.903 267.282 257.209 264.045 253.126C262.427 251.085 261.324 249.217 260.759 247.558C260.195 245.903 260.177 244.488 260.675 243.308Z" stroke="#DD92A0"/>
<path d="M257.934 243.479C258.715 242.462 259.956 241.779 261.674 241.451C263.397 241.122 265.567 241.157 268.142 241.555C273.294 242.35 279.962 244.576 287.702 248.049C303.172 254.992 322.817 266.872 342.96 282.048C363.084 297.209 377.96 313.259 387.697 326.454C392.565 333.052 396.144 338.93 398.451 343.62C399.604 345.966 400.436 348.007 400.953 349.686C401.41 351.174 401.609 352.342 401.587 353.176C399.421 353.736 395.786 353.554 390.882 352.479C385.752 351.354 379.317 349.271 371.893 346.147C357.046 339.899 338.28 329.501 318.146 314.332C298.003 299.156 281.201 283.577 270.318 270.665C264.874 264.206 260.93 258.436 258.782 253.733C257.709 251.381 257.096 249.32 256.957 247.588C256.818 245.861 257.153 244.495 257.934 243.479Z" stroke="#DD92A0"/>
<path d="M256.394 244.197C257.363 243.349 258.722 242.912 260.483 242.91C262.248 242.908 264.385 243.345 266.853 244.211C271.789 245.942 277.949 249.351 284.927 254.175C298.875 263.819 315.998 279.056 332.978 297.602C349.942 316.13 361.55 334.552 368.63 349.235C372.17 356.578 374.574 362.978 375.951 367.983C376.639 370.486 377.068 372.632 377.255 374.367C377.42 375.905 377.392 377.083 377.209 377.894C374.962 378.04 371.404 377.188 366.764 375.229C361.912 373.18 355.955 369.954 349.222 365.529C335.756 356.678 319.216 343.051 302.244 324.514C285.264 305.968 271.662 287.648 263.395 273.029C259.26 265.716 256.473 259.353 255.257 254.365C254.649 251.871 254.44 249.746 254.636 248.03C254.832 246.318 255.425 245.046 256.394 244.197Z" stroke="#DD92A0"/>
<path d="M260.979 246.71C263.569 246.206 266.707 247.905 270.223 251.822C273.707 255.703 277.424 261.611 281.147 269.125C288.588 284.144 296.003 305.478 301.617 329.562C307.225 353.622 308.154 374.98 306.975 390.943C306.385 398.926 305.269 405.551 303.951 410.486C303.292 412.955 302.584 414.992 301.871 416.561C301.236 417.958 300.611 418.951 300.036 419.552C297.975 418.584 295.259 416.122 292.147 412.184C288.898 408.073 285.268 402.419 281.559 395.365C274.142 381.257 266.427 361.579 260.816 337.507C255.203 313.423 252.461 291.18 252.558 274.692C252.607 266.444 253.367 259.665 254.817 254.823C256.282 249.935 258.389 247.214 260.979 246.71Z" stroke="#DD92A0"/>
<path d="M249.748 249.078C250.866 248.424 252.292 248.242 254.034 248.559C255.78 248.876 257.81 249.689 260.088 250.98C264.644 253.563 270.095 258.007 276.089 263.981C288.072 275.925 302.144 293.906 315.454 315.094C328.752 336.262 336.774 356.359 341.019 371.985C343.142 379.798 344.319 386.486 344.741 391.625C344.952 394.195 344.974 396.369 344.833 398.098C344.708 399.631 344.459 400.778 344.125 401.537C341.876 401.274 338.517 399.799 334.296 397.046C329.884 394.168 324.599 389.94 318.771 384.399C307.117 373.319 293.32 357.016 280.016 335.837C266.705 314.649 256.693 294.292 251.261 278.514C248.544 270.621 246.983 263.901 246.716 258.808C246.583 256.261 246.775 254.147 247.29 252.506C247.805 250.869 248.631 249.732 249.748 249.078Z" stroke="#DD92A0"/>
<path d="M260.801 250.686C259.635 251.26 258.196 251.341 256.478 250.904C254.755 250.467 252.784 249.516 250.601 248.072C246.234 245.184 241.106 240.381 235.546 234.017C224.433 221.295 211.668 202.418 199.896 180.402C188.136 158.408 181.572 137.847 178.46 122.001C176.904 114.077 176.212 107.339 176.162 102.195C176.138 99.623 176.274 97.458 176.54 95.7471C176.775 94.2287 177.108 93.1042 177.497 92.372C179.727 92.7903 182.978 94.4924 186.999 97.5274C191.202 100.7 196.179 105.277 201.604 111.197C212.452 123.038 225.064 140.225 236.83 162.231C248.601 184.246 257.136 205.205 261.423 221.286C263.567 229.33 264.641 236.127 264.539 241.214C264.488 243.758 264.143 245.848 263.508 247.445C262.875 249.039 261.967 250.113 260.801 250.686Z" stroke="#DD92A0"/>
<path d="M259.183 244.608C261.847 244.744 264.491 247.136 266.951 251.745C269.389 256.313 271.551 262.886 273.318 271.006C276.85 287.238 278.784 309.537 278.273 334.05C277.762 358.538 273.35 379.305 268.222 394.377C265.658 401.913 262.917 408.019 260.399 412.449C259.14 414.665 257.942 416.455 256.854 417.793C255.883 418.987 255.023 419.794 254.309 420.234C252.534 418.809 250.491 415.788 248.428 411.25C246.276 406.517 244.136 400.208 242.268 392.533C238.533 377.184 235.893 356.406 236.404 331.905C236.916 307.392 239.776 285.339 243.978 269.503C246.08 261.581 248.51 255.243 251.134 250.934C253.781 246.587 256.519 244.471 259.183 244.608Z" stroke="#DD92A0"/>
<path d="M257.655 243.769C260.265 244.397 262.416 247.224 263.959 252.176C265.489 257.086 266.359 263.902 266.542 272.154C266.908 288.651 264.526 310.773 259.303 334.603C254.084 358.408 245.729 377.858 237.762 391.617C233.777 398.497 229.894 403.947 226.554 407.805C224.884 409.734 223.356 411.258 222.023 412.362C220.832 413.35 219.826 413.978 219.035 414.275C217.554 412.556 216.116 409.228 214.951 404.414C213.736 399.395 212.836 392.842 212.468 385.004C211.732 369.332 213.123 348.563 218.344 324.746C223.568 300.916 230.638 279.922 237.837 265.246C241.439 257.905 245.06 252.169 248.481 248.451C251.931 244.701 255.045 243.14 257.655 243.769Z" stroke="#DD92A0"/>
<path d="M261.847 251.063C264.177 252.419 265.396 255.721 265.385 260.851C265.374 265.939 264.15 272.637 261.829 280.492C257.19 296.196 248.199 316.417 235.949 337.425C223.713 358.411 209.77 374.365 197.923 385.051C191.998 390.395 186.604 394.416 182.217 397.089C180.022 398.426 178.087 399.422 176.468 400.078C175.019 400.665 173.857 400.966 173.004 401.015C172.095 398.959 171.715 395.391 172.048 390.499C172.396 385.4 173.511 378.941 175.528 371.424C179.561 356.392 187.188 337.162 199.43 316.165C211.68 295.157 224.851 277.369 236.235 265.592C241.929 259.7 247.157 255.334 251.581 252.815C256.042 250.276 259.518 249.707 261.847 251.063Z" stroke="#DD92A0"/>
<path d="M261.925 248.362C263.863 250.225 264.233 253.693 262.944 258.625C261.666 263.517 258.802 269.666 254.577 276.666C246.13 290.659 232.305 307.954 215.099 325.224C197.912 342.475 180.309 354.477 166.067 361.914C158.945 365.634 152.671 368.208 147.716 369.727C145.238 370.486 143.098 370.98 141.352 371.222C139.791 371.439 138.58 371.45 137.734 371.293C137.359 369.097 137.876 365.575 139.42 360.949C141.029 356.127 143.728 350.182 147.572 343.435C155.258 329.942 167.503 313.274 184.7 296.013C201.906 278.743 219.211 264.792 233.271 256.194C240.305 251.893 246.503 248.946 251.455 247.585C256.448 246.212 259.987 246.499 261.925 248.362Z" stroke="#DD92A0"/>
<path d="M261.34 246.745C262.895 248.92 262.594 252.372 260.371 256.949C258.166 261.487 254.153 266.958 248.63 273.007C237.591 285.099 220.602 299.416 200.279 313.082C179.976 326.734 160.273 335.185 144.77 339.804C137.017 342.113 130.323 343.463 125.135 344.027C122.54 344.309 120.331 344.394 118.559 344.307C116.976 344.229 115.779 344.016 114.974 343.706C115.026 341.493 116.215 338.153 118.63 333.925C121.149 329.518 124.96 324.215 130.056 318.342C140.248 306.598 155.555 292.599 175.868 278.94C196.192 265.274 215.976 254.865 231.523 249.08C239.301 246.185 245.992 244.459 251.147 244.048C256.346 243.634 259.786 244.571 261.34 246.745Z" stroke="#DD92A0"/>
<path d="M264.276 254.538C265.063 257.053 263.667 260.197 260.057 263.807C256.48 267.384 250.867 271.274 243.622 275.239C229.14 283.163 208.236 291.33 184.345 297.851C160.478 304.364 138.863 306.182 122.508 305.705C114.331 305.467 107.476 304.656 102.319 303.575C99.7403 303.034 97.5943 302.428 95.9233 301.796C94.4362 301.234 93.3605 300.664 92.6883 300.127C93.4551 298.068 95.6705 295.304 99.344 292.089C103.18 288.733 108.543 284.938 115.323 281.007C128.88 273.145 148.069 264.754 171.948 258.237C195.839 251.717 218.163 248.087 234.936 247.482C243.326 247.179 250.299 247.635 255.376 248.85C260.5 250.076 263.489 252.024 264.276 254.538Z" stroke="#DD92A0"/>
<path d="M266.23 252.692C266.301 253.988 265.809 255.306 264.729 256.638C263.647 257.973 261.992 259.298 259.798 260.59C255.41 263.173 248.954 265.569 240.885 267.645C224.754 271.794 202.286 274.635 177.309 275.176C152.356 275.716 130.774 272.278 114.906 267.897C106.971 265.706 100.473 263.281 95.7011 261.003C93.3146 259.865 91.3676 258.766 89.8914 257.758C88.5811 256.862 87.6731 256.059 87.1497 255.382C88.4138 253.587 91.2668 251.461 95.6543 249.252C100.24 246.943 106.429 244.579 114.035 242.424C129.246 238.113 150.093 234.646 175.058 234.105C200.036 233.565 222.761 235.428 239.308 238.87C247.585 240.592 254.288 242.703 258.949 245.09C261.279 246.284 263.075 247.534 264.301 248.82C265.524 250.102 266.159 251.395 266.23 252.692Z" stroke="#DD92A0"/>
<path d="M266.927 251.162C266.748 252.438 266.01 253.632 264.686 254.732C263.36 255.834 261.47 256.821 259.053 257.675C254.22 259.383 247.379 260.524 239.007 261.054C222.27 262.114 199.524 260.722 174.742 256.619C149.983 252.52 129.321 245.163 114.486 237.945C107.068 234.335 101.114 230.763 96.8369 227.656C94.6981 226.102 92.9857 224.669 91.7212 223.411C90.6007 222.296 89.8591 221.344 89.4717 220.588C91.0672 219.071 94.2943 217.526 99.0519 216.184C104.028 214.781 110.597 213.621 118.528 212.927C134.387 211.54 155.652 212.02 180.423 216.121C205.205 220.224 227.3 226.256 242.987 232.683C250.834 235.899 257.051 239.202 261.196 242.396C263.269 243.994 264.803 245.547 265.767 247.029C266.728 248.507 267.106 249.886 266.927 251.162Z" stroke="#DD92A0"/>
<path d="M259.958 255.582C259.4 256.735 258.328 257.648 256.719 258.302C255.106 258.958 252.985 259.34 250.396 259.443C245.217 259.649 238.275 258.734 230.04 256.795C213.579 252.918 192.064 244.972 169.407 233.869C146.771 222.776 129.071 209.798 116.949 198.648C110.887 193.073 106.227 187.96 103.043 183.775C101.45 181.682 100.232 179.828 99.3936 178.27C98.6515 176.891 98.2245 175.776 98.0792 174.949C100.077 173.981 103.656 173.461 108.648 173.579C113.871 173.703 120.558 174.521 128.416 176.177C144.13 179.488 164.493 186.141 187.14 197.238C209.797 208.341 229.28 220.485 242.462 231.135C249.057 236.462 254.053 241.398 257.084 245.627C258.6 247.741 259.609 249.657 260.09 251.339C260.57 253.018 260.516 254.43 259.958 255.582Z" stroke="#DD92A0"/>
<path d="M262.707 255.546C261.874 256.521 260.599 257.142 258.863 257.386C257.123 257.63 254.954 257.488 252.398 256.966C247.285 255.922 240.727 253.377 233.161 249.536C218.037 241.858 198.987 229.053 179.605 212.937C160.243 196.837 146.174 180.106 137.103 166.473C132.567 159.656 129.285 153.62 127.215 148.831C126.179 146.436 125.451 144.36 125.019 142.66C124.637 141.155 124.497 139.979 124.562 139.149C126.756 138.696 130.384 139.055 135.235 140.366C140.309 141.738 146.641 144.129 153.91 147.607C168.445 154.562 186.691 165.846 206.063 181.954C225.444 198.07 241.463 214.425 251.696 227.831C256.815 234.538 260.468 240.484 262.378 245.279C263.333 247.677 263.842 249.762 263.893 251.495C263.944 253.225 263.54 254.57 262.707 255.546Z" stroke="#DD92A0"/>
<path d="M264.285 254.904C263.273 255.703 261.892 256.073 260.13 255.988C258.364 255.904 256.249 255.364 253.823 254.38C248.974 252.414 242.984 248.714 236.248 243.563C222.784 233.265 206.427 217.236 190.38 197.914C174.349 178.61 163.67 159.674 157.332 144.686C154.162 137.192 152.081 130.693 150.958 125.635C150.396 123.105 150.076 120.944 149.977 119.205C149.889 117.663 149.977 116.489 150.201 115.69C152.456 115.654 155.973 116.677 160.515 118.857C165.264 121.136 171.06 124.644 177.572 129.386C190.594 138.868 206.449 153.264 222.488 172.577C238.534 191.899 251.213 210.831 258.742 225.812C262.509 233.306 264.974 239.787 265.938 244.821C266.42 247.338 266.521 249.467 266.238 251.168C265.956 252.865 265.298 254.105 264.285 254.904Z" stroke="#DD92A0"/>
</svg>
